<svg id="af9a56c9-3378-4961-8b2e-ce7fd43e8607" data-name="Layer 1" xmlns="http://www.w3.org/2000/svg" viewBox="0 0 800 800"><title>logo</title><path d="M484.54,587.83V244.36c0-96.25,136.65-156.26,178.74-35.92" style="fill:none;stroke:#000;stroke-miterlimit:10;stroke-width:40px"/><path d="M484.54,245.65c-39.11-184-313.77-154.55-260,22.37" style="fill:none;stroke:#000;stroke-miterlimit:10;stroke-width:40px"/><circle cx="294.08" cy="356.02" r="100.27" style="fill:none;stroke:#9ac569;stroke-miterlimit:10;stroke-width:40px"/><path d="M181.81,722.31q0,19.7-9.85,30.62t-27.89,10.92Q125.8,763.85,116,753t-9.79-30.81q0-20,9.85-30.68t28.11-10.7q18,0,27.81,10.86T181.81,722.31Zm-61.58,0q0,14.9,6,22.59t17.83,7.7q11.75,0,17.74-7.62t6-22.67q0-14.85-5.93-22.51t-17.68-7.67q-11.87,0-17.91,7.67T120.23,722.31Z"/><path d="M221.92,718.89,241,682.08h14.35l-26.87,49.39v31.28H215.24V731.91l-26.76-49.83h14.35Z"/><path d="M325.15,700.62q11.43,0,17.8,8.28t6.37,23.23q0,15-6.46,23.36t-17.93,8.36q-11.58,0-18-8.33h-.89l-2.37,7.23H294V676.9h13v20.41q0,2.27-.22,6.73t-.33,5.69h.55Q313.12,700.63,325.15,700.62Zm-3.36,10.6q-7.85,0-11.29,4.6T307,731.24v.89q0,11.14,3.53,16.14t11.53,5a11.68,11.68,0,0,0,10.45-5.46Q336,742.34,336,732,336,711.21,321.79,711.22Z"/><path d="M395.34,700.62a31.72,31.72,0,0,1,6.45.55l-1.27,12.09a24.55,24.55,0,0,0-5.73-.66,16.62,16.62,0,0,0-12.61,5.07q-4.83,5.08-4.83,13.19v31.89h-13v-61h10.16l1.71,10.76h.66a24.27,24.27,0,0,1,7.91-8.67A18.87,18.87,0,0,1,395.34,700.62Z"/><path d="M412.33,685.56a7.2,7.2,0,0,1,1.9-5.35,7.43,7.43,0,0,1,5.44-1.88,7.26,7.26,0,0,1,5.32,1.88,7.17,7.17,0,0,1,1.91,5.35,7,7,0,0,1-1.91,5.21,7.19,7.19,0,0,1-5.32,1.91,7.36,7.36,0,0,1-5.44-1.91A7.07,7.07,0,0,1,412.33,685.56Zm13.74,77.19h-13v-61h13Z"/><path d="M496.14,701.73v7.11l-10.43,1.94a16.68,16.68,0,0,1,2.38,4.74,18.88,18.88,0,0,1,.93,6q0,9.43-6.51,14.84t-17.93,5.41a29.57,29.57,0,0,1-5.3-.44q-4.18,2.6-4.19,6.07a3.37,3.37,0,0,0,2,3.14q2,1.05,7.2,1H474.9q10.1,0,15.34,4.31t5.24,12.41a18.06,18.06,0,0,1-8.55,16q-8.55,5.63-24.72,5.63-12.46,0-19-4.42a14.27,14.27,0,0,1-6.56-12.58,13.36,13.36,0,0,1,3.56-9.46,19.07,19.07,0,0,1,10-5.32,9.75,9.75,0,0,1-4.28-3.56,9,9,0,0,1-1.68-5.16,8.85,8.85,0,0,1,1.93-5.79,22,22,0,0,1,5.74-4.69,17,17,0,0,1-7.7-6.65,19.55,19.55,0,0,1-2.95-10.79q0-9.93,6.26-15.39t17.85-5.47a43.42,43.42,0,0,1,5.44.36,33.53,33.53,0,0,1,4.27.75Zm-47.95,70.51A7.14,7.14,0,0,0,452,778.7Q455.75,781,462.6,781q10.59,0,15.78-3t5.18-8.06c0-2.65-.94-4.53-2.84-5.66s-5.42-1.68-10.56-1.68h-9.83q-5.56,0-8.85,2.62A8.6,8.6,0,0,0,448.19,772.24Zm5.58-50.76q0,5.74,3,8.83t8.47,3.09q11.25,0,11.26-12c0-4-.93-7-2.79-9.19S469,709,465.19,709s-6.59,1.07-8.52,3.2S453.77,717.4,453.77,721.48Z"/><path d="M545.64,762.75l-2.6-8.5h-.44q-4.41,5.58-8.88,7.59a28.17,28.17,0,0,1-11.48,2q-9,0-14-4.85t-5.05-13.74q0-9.43,7-14.23t21.35-5.25l10.54-.33V722.2q0-5.85-2.73-8.75c-1.82-1.93-4.65-2.89-8.47-2.89a29.19,29.19,0,0,0-9,1.38,68.12,68.12,0,0,0-8.28,3.25l-4.19-9.27A45,45,0,0,1,520.26,702a50.07,50.07,0,0,1,11.14-1.36q11.64,0,17.58,5.08t5.93,15.95v41.1Zm-19.32-8.83q7.06,0,11.34-3.94t4.28-11.07v-5.29l-7.84.33q-9.15.33-13.32,3.06t-4.17,8.36a8.16,8.16,0,0,0,2.43,6.32Q521.47,753.93,526.32,753.92Z"/><path d="M593.58,763.85q-11.42,0-17.82-8.27t-6.4-23.23q0-15,6.48-23.37t18-8.36q12,0,18.32,8.89h.66a78.49,78.49,0,0,1-.93-10.37V676.9h13v85.85H614.71l-2.26-8h-.6Q605.61,763.86,593.58,763.85Zm3.48-10.48c5.33,0,9.22-1.5,11.64-4.5s3.68-7.86,3.76-14.59v-1.82q0-11.54-3.76-16.39T597,711.22a11.94,11.94,0,0,0-10.54,5.54q-3.69,5.55-3.7,15.81t3.59,15.48Q589.89,753.38,597.06,753.37Z"/><path d="M670.06,763.85q-14.23,0-22.27-8.3t-8-22.87q0-15,7.44-23.51t20.47-8.55q12.09,0,19.1,7.34t7,20.19v7H653.12q.27,8.9,4.8,13.66c3,3.18,7.26,4.77,12.75,4.77a47,47,0,0,0,10.06-1,52.89,52.89,0,0,0,10-3.39v10.53a39.4,39.4,0,0,1-9.6,3.2A58.54,58.54,0,0,1,670.06,763.85Zm-2.38-53.41a13,13,0,0,0-9.9,3.92q-3.72,3.92-4.44,11.42H681q-.12-7.56-3.64-11.45T667.68,710.44Z"/><circle cx="399.1" cy="316.1" r="281" style="fill:none;stroke:#000;stroke-miterlimit:10;stroke-width:50px"/><path d="M175.66,495.55H622.54S544.77,602.67,402.35,602.67C250.1,602.67,175.66,495.55,175.66,495.55Z"/></svg>